<?xml version="1.0" encoding="UTF-8"?>
<svg width="36px" height="33px" viewBox="0 0 36 33" version="1.1" xmlns="http://www.w3.org/2000/svg" xmlns:xlink="http://www.w3.org/1999/xlink">
    <!-- Generator: Sketch 47.1 (45422) - http://www.bohemiancoding.com/sketch -->
    <title>Group 3</title>
    <desc>Created with Sketch.</desc>
    <defs></defs>
    <g id="Mobile-Layout-Fields" stroke="none" stroke-width="1" fill="none" fill-rule="evenodd">
        <g id="Section-Header-1-1-Copy-6" transform="translate(-218.000000, -859.000000)" fill="#FFF">
            <g id="Page-1" transform="translate(218.000000, 859.000000)">
                <g id="Group-3">
                    <path d="M13.8341455,23.2389179 L13.8355481,23.2389179 C13.8355481,21.8557388 13.8436519,20.4725597 13.8324312,19.0895373 C13.8257299,18.2819776 13.2327429,17.699306 12.4557039,17.700403 C11.6881714,17.7015 11.0900416,18.2648955 11.086613,19.0520821 C11.0747688,21.8574627 11.0727429,24.663 11.0956519,27.4683806 C11.0979896,27.7564254 11.2396519,28.0816119 11.4107688,28.3218582 C11.7478597,28.7956119 12.366561,28.9390075 12.9157558,28.7482836 C13.4540416,28.5611642 13.8265091,28.0648433 13.8308727,27.4666567 C13.8411584,26.0574627 13.8341455,24.6481119 13.8341455,23.2389179 M16.6187688,23.238291 L16.6175221,23.238291 C16.6175221,24.608306 16.5997558,25.9789478 16.6307688,27.3483358 C16.6380935,27.667097 16.7488987,28.0231567 16.9220416,28.2898881 C17.2438597,28.7857388 17.8893662,28.9424552 18.4497818,28.7490672 C19.0144052,28.5542687 19.3684831,28.0510522 19.3697299,27.390806 C19.3750286,24.6374552 19.3726909,21.8842612 19.3698857,19.1309104 C19.3698857,18.9889254 19.3580416,18.8419254 19.320639,18.7058955 C19.1350286,18.0306045 18.5164831,17.6303507 17.8002234,17.7110597 C17.1388208,17.7855 16.6282753,18.3449776 16.6221974,19.0495746 C16.6103532,20.4457612 16.6187688,21.8419478 16.6187688,23.238291 M24.9040675,23.2462836 L24.9053143,23.2462836 C24.9053143,21.9022836 24.9073403,20.5582836 24.9028208,19.2142836 C24.9021974,19.0337463 24.8948727,18.8452164 24.8446909,18.6740821 C24.6473922,18.0014552 24.0154442,17.6162463 23.3029247,17.7143507 C22.6469766,17.8049328 22.158561,18.3711493 22.1571584,19.0837388 C22.1512364,21.8631045 22.1537299,24.6423134 22.1568468,27.4216791 C22.1570026,27.5630373 22.1733662,27.7100373 22.213574,27.8448134 C22.4041714,28.4834328 23.0446909,28.9051567 23.6780416,28.8208433 C24.3837039,28.7269701 24.894561,28.1844179 24.9004831,27.4740224 C24.9124831,26.0648284 24.9040675,24.6554776 24.9040675,23.2462836 M17.986613,12.1269403 C23.3750805,12.1269403 28.7635481,12.1269403 34.1518597,12.1272537 C34.320639,12.1272537 34.4898857,12.1245896 34.6580416,12.1347761 C35.4247948,12.1813209 35.9615221,12.7265373 35.9744571,13.5046343 C35.989574,14.4184478 35.9855221,15.3325746 35.9771065,16.2465448 C35.9694701,17.0586493 35.4851065,17.6084104 34.6825091,17.6819104 C34.4164831,17.7062015 34.3490026,17.7988209 34.3081714,18.0483134 C33.6201195,22.2431418 32.9217818,26.4362463 32.2218857,30.6290373 C31.9859377,32.0418358 30.8771065,32.9963955 29.4525351,32.9970224 C21.8177299,33.001097 14.1830805,33.0007836 6.54827532,32.9973358 C5.11450909,32.996709 4.00785974,32.0728657 3.76708052,30.6472164 C3.08510649,26.6098881 2.4208987,22.5695821 1.74983377,18.5303731 C1.7368987,18.4532687 1.71165195,18.3758507 1.71305455,18.298903 C1.7210026,17.8669925 1.54318442,17.6836343 1.08656104,17.6345821 C0.493574026,17.5711119 0.0438077922,17.0544179 0.0252623377,16.454194 C-0.00652987013,15.424097 -0.010425974,14.3913358 0.0258857143,13.3613955 C0.049574026,12.6870448 0.600171429,12.1908806 1.27637922,12.1390075 C1.45715844,12.1250597 1.6394961,12.1274104 1.82121039,12.1274104 C7.20967792,12.1267836 12.5981455,12.1269403 17.986613,12.1269403" id="Fill-1"></path>
                    <path d="M18.5754568,3.426625 C18.2501159,3.76725 17.986025,4.05865625 17.7058659,4.3344375 C15.9272295,6.086 14.1419114,7.831 12.368525,9.5875625 C12.1739568,9.78021875 11.9809795,9.85490625 11.7081386,9.85178125 C10.5429568,9.83834375 9.37761591,9.846 8.15357045,9.846 C8.236775,9.73975 8.28132045,9.66771875 8.34034318,9.60990625 C11.3856614,6.616625 14.4308205,3.6235 17.4796386,0.63365625 C18.1554568,-0.029 18.9650705,-0.04946875 19.6229114,0.59475 C22.7204114,3.62865625 25.8109114,6.6694375 28.9034795,9.70834375 C28.921775,9.7263125 28.9345023,9.7500625 28.9788886,9.81084375 C28.8637068,9.82428125 28.7714341,9.8444375 28.6791614,9.84459375 C27.5787295,9.84678125 26.4781386,9.85803125 25.3783432,9.83490625 C25.1826614,9.83084375 24.9432295,9.72725 24.8030705,9.591 C22.8336841,7.67725 20.8775023,5.75021875 18.9198886,3.82475 C18.8171159,3.72365625 18.7305705,3.6069375 18.5754568,3.426625" id="Fill-4"></path>
                </g>
            </g>
        </g>
    </g>
</svg>
