<svg width="24" height="24" viewBox="0 0 24 24" fill="none" xmlns="http://www.w3.org/2000/svg">
<path fill-rule="evenodd" clip-rule="evenodd" d="M1.99963 3.00001L2.99926 3L3.18921 5.07161L3.95397 17.3123L3.95534 17.3343C3.96231 17.4465 3.97071 17.5817 3.9877 17.7009C4.00755 17.84 4.04831 18.0358 4.16307 18.2387C4.31272 18.5033 4.53919 18.7161 4.81247 18.849C5.02203 18.951 5.22002 18.9794 5.36003 18.9906C5.47994 19.0001 5.61545 19.0001 5.72777 19L18.9933 19C19.5454 19 19.993 18.5523 19.993 18C19.993 17.4477 19.5454 17 18.9933 17H5.93762L5.81267 15H18.1655C18.641 15 19.0538 15 19.3964 14.9734C19.76 14.9451 20.1209 14.8828 20.4752 14.7168C21.0077 14.4672 21.4551 14.0666 21.7618 13.5647C21.9659 13.2309 22.0677 12.8788 22.1359 12.5205C22.2003 12.1828 22.2458 11.7724 22.2983 11.2996L22.3011 11.2744L22.9832 6.13153L22.9857 6.11044C23.0445 5.58126 22.9083 5.14062 22.8185 4.92448C22.6883 4.61098 22.4556 4.35093 22.1585 4.18684C21.9259 4.05839 21.6995 4.02451 21.5455 4.0114C21.4105 3.9999 21.2559 3.99996 21.1238 4.00001L5.12542 4.00001L5.04344 2.68773L5.04207 2.66571C5.0351 2.55357 5.0267 2.41827 5.00971 2.29916C4.98986 2.16007 4.9491 1.96417 4.83434 1.7613C4.68469 1.49673 4.45822 1.2839 4.18494 1.15099C3.97537 1.04907 3.77739 1.02059 3.63738 1.00945C3.51748 0.99991 3.38198 0.999962 3.26967 1.00001L3.24761 1.00001H1.99963C1.44755 1.00001 1 1.44773 1 2.00001C1 2.5523 1.44755 3.00001 1.99963 3.00001ZM7.4976 20C6.66947 20 5.99815 20.6716 5.99815 21.5C5.99815 22.3284 6.66947 23 7.4976 23C8.32572 23 8.99704 22.3284 8.99704 21.5C8.99704 20.6716 8.32572 20 7.4976 20ZM16.4943 20C15.6661 20 14.9948 20.6716 14.9948 21.5C14.9948 22.3284 15.6661 23 16.4943 23C17.3224 23 17.9937 22.3284 17.9937 21.5C17.9937 20.6716 17.3224 20 16.4943 20Z" fill="white"/>
</svg>
