<svg xmlns="http://www.w3.org/2000/svg" width="11" height="14"><path fill="#FFF" fill-rule="evenodd" d="M5.4823 1.7194c.3681 0 .7363-.002 1.1044.0006.3834.0027.3322.0048.2375-.335-.0681-.244-.2428-.3728-.4928-.3731a411.7674 411.7674 0 0 0-1.6858.0001c-.2329.0007-.4043.1334-.4723.3595a6.6822 6.6822 0 0 0-.0516.184c-.0381.1416-.023.1631.1253.1635.4118.0012.8235.0004 1.2353.0004M7.196 8.0221h.0007c-.0207.6873-.0418 1.3747-.0619 2.062-.0133.4566-.0293.9132-.0362 1.3699-.0034.223.1552.395.357.41.2266.0168.4049-.1269.4341-.3601.0146-.1165.0142-.235.0176-.3528.0466-1.5858.093-3.1716.1385-4.7574.017-.5892.0307-1.1784.0476-1.7676.0046-.1625-.0377-.303-.176-.3966-.1269-.0857-.2658-.0936-.4001-.0236-.1508.0785-.2165.2104-.2212.3844-.0312 1.144-.0663 2.2879-.1001 3.4318m-3.3988.0128l-.0007.0001c-.0146-.5155-.029-1.031-.044-1.5465-.0185-.6383-.0358-1.2766-.0576-1.9147-.0094-.2725-.224-.4508-.4763-.4056-.2058.0368-.3247.2136-.3174.4745.0533 1.9001.1067 3.8002.1603 5.7002.0099.3535.0204.707.031 1.0605.0044.147.033.2848.1599.3773.1324.0964.2786.1201.424.0423.1603-.0858.2264-.2303.2207-.4152-.0346-1.1242-.0669-2.2486-.1-3.3729m1.2973-.0337c0 1.1154-.0003 2.231.0009 3.3464 0 .073.0033.1483.0207.2186.0443.179.192.2944.3684.299.1821.0047.3414-.1093.3902-.2902.0189-.0698.0236-.1453.0236-.2182.0012-2.226.0011-4.4521.0003-6.678-.0001-.0683-.003-.1385-.0182-.2045-.046-.2008-.2005-.3169-.4017-.31-.2337.0079-.3835.185-.3837.461-.001 1.1253-.0004 2.2506-.0005 3.3759m.4026 5.993c-1.0415 0-2.0835-.0163-3.1246.0055-.7507.0157-1.3934-.5645-1.4156-1.411C.9105 10.8201.832 9.0524.7678 7.2842.7151 5.8402.6622 4.3962.615 2.9522c-.0046-.1433-.0433-.2109-.1926-.2313-.2779-.0383-.4399-.2592-.4209-.5417.017-.2548.231-.4575.4978-.4585.7703-.0028 1.5406-.0011 2.311-.0013.2187 0 .2224-.003.282-.211.042-.146.0843-.292.1266-.4378.179-.617.7309-1.0546 1.3652-1.064A65.2097 65.2097 0 0 1 6.4008.006c.6216.008 1.1666.4254 1.363 1.0312.053.163.1032.3277.141.4947.0315.1395.1017.191.2437.19.78-.0052 1.56-.0028 2.3399-.002.2157.0002.3721.1056.46.3004.0858.1904.0681.3862-.0795.5331-.0836.0832-.209.1368-.325.1688-.1133.0314-.1596.0758-.1639.1972-.0768 2.2152-.1571 4.4303-.2372 6.6453a2744.9656 2744.9656 0 0 1-.1137 3.0942c-.0284.763-.595 1.3294-1.3491 1.3335-1.061.006-2.122.0016-3.183.0016"/></svg>