<svg xmlns="http://www.w3.org/2000/svg" width="11" height="11"><path fill="#FFF" fill-rule="evenodd" d="M.4238 11c.049-.0122.135-.0318.22-.055.9019-.2461 1.8077-.479 2.7027-.7482.2522-.0758.5142-.2155.7004-.3985C5.4464 8.4236 6.8283 7.031 8.215 5.6432c.2607-.261.2602-.3054-.0074-.5737-.7588-.7608-1.519-1.5203-2.2793-2.2797-.2815-.2812-.3079-.2811-.591.0026-1.2256 1.2281-2.4334 2.4746-3.684 3.6769C1.122 6.98.7589 7.537.6043 8.2623c-.1537.7205-.3848 1.4244-.577 2.137-.0935.3464.0581.593.3966.6007M8.4558.021c-.2589.11-.5045.1613-.6802.3007-.3068.2435-.5705.5415-.8527.8162-.1453.1415-.1113.2676.0208.3992.8591.856 1.7175 1.7125 2.5718 2.5732.162.1632.2942.1496.4458-.0102.214-.2255.4417-.4378.6576-.6616.4856-.5034.4907-1.0916-.0006-1.5962-.4698-.4826-.941-.966-1.4404-1.417C8.982.2483 8.7076.158 8.4558.021"/></svg>