<svg xmlns="http://www.w3.org/2000/svg" width="54" height="54" viewBox="0 0 54 54">
  <g fill="none" fill-rule="evenodd">
    <circle cx="27" cy="27" r="27" fill="#0092FF"/>
    <path fill="#FFF" fill-rule="nonzero" d="M21.9468244,39.2333125 C21.8565886,39.3235483 21.7451534,39.3896999 21.6227261,39.4257079 L12.9788937,41.9680116 C12.3997456,42.1383493 11.8616507,41.6002544 12.0319884,41.0211063 L14.5742921,32.3772739 C14.6103001,32.2548466 14.6764517,32.1434114 14.7666875,32.0531756 L34.0007263,12.8191368 C34.5251823,12.2946538 35.2365135,12 35.9782254,12 C36.7199373,12 37.4312685,12.2946538 37.9557107,12.8191229 L41.1808632,16.0442754 C41.7053462,16.5687315 42,17.2800627 42,18.0217746 C42,18.7634865 41.7053462,19.4748177 41.1808771,19.9992598 L21.9468244,39.2333125 Z M40.1022829,18.9206378 C40.3406843,18.6822487 40.4746178,18.3589164 40.4746178,18.0217746 C40.4746178,17.6846328 40.3406843,17.3613004 40.102269,17.1228974 L36.8770887,13.8977171 C36.6386996,13.6593157 36.3153672,13.5253822 35.9782254,13.5253822 C35.6410836,13.5253822 35.3177513,13.6593157 35.0793483,13.897731 L15.9828149,32.9942643 L13.8899313,40.1100687 L21.0057357,38.0171851 L40.1022829,18.9206378 Z M18.89606,36.1825481 C18.5982106,36.4803975 18.1153013,36.4803975 17.8174519,36.1825481 C17.5196025,35.8846987 17.5196025,35.4017894 17.8174519,35.10394 L34.5966562,18.3247357 C34.8945056,18.0268863 35.3774149,18.0268863 35.6752643,18.3247357 C35.9731137,18.6225851 35.9731137,19.1054944 35.6752643,19.4033438 L18.89606,36.1825481 Z M31.5458918,16.3525794 C31.2480424,16.05473 31.2480424,15.5718207 31.5458918,15.2739713 C31.8437412,14.9761219 32.3266505,14.9761219 32.6244999,15.2739713 L38.7260287,21.3755001 C39.0238781,21.6733495 39.0238781,22.1562588 38.7260287,22.4541082 C38.4281793,22.7519576 37.94527,22.7519576 37.6474206,22.4541082 L31.5458918,16.3525794 Z M14.7666875,33.1317836 C14.4688381,32.8339342 14.4688381,32.351025 14.7666875,32.0531756 C15.0645369,31.7553261 15.5474462,31.7553261 15.8452956,32.0531756 L21.9468244,38.1547044 C22.2446739,38.4525538 22.2446739,38.9354631 21.9468244,39.2333125 C21.648975,39.5311619 21.1660658,39.5311619 20.8682164,39.2333125 L14.7666875,33.1317836 Z"/>
  </g>
</svg>
