<svg id="Layer_1" data-name="Layer 1" xmlns="http://www.w3.org/2000/svg" viewBox="0 0 60 48"><defs><style>.cls-1{fill:#454545;}</style></defs><title>PG-CC</title><path id="Path_1006" data-name="Path 1006" class="cls-1" d="M49.76,8.39a3.35,3.35,0,0,0-2.44-1H12.68a3.37,3.37,0,0,0-2.45,1,3.32,3.32,0,0,0-1,2.45V37.16a3.32,3.32,0,0,0,1,2.45,3.37,3.37,0,0,0,2.45,1H47.32a3.48,3.48,0,0,0,3.46-3.47V10.84A3.33,3.33,0,0,0,49.76,8.39ZM48,37.16a.71.71,0,0,1-.69.7H12.68a.71.71,0,0,1-.69-.7V24H48V37.16Zm0-21.47H12V10.84a.71.71,0,0,1,.69-.7H47.32a.71.71,0,0,1,.69.7v4.85Z"/><rect id="Rectangle_463" data-name="Rectangle 463" class="cls-1" x="15.37" y="32.06" width="6.15" height="3.08"/><rect id="Rectangle_464" data-name="Rectangle 464" class="cls-1" x="22.69" y="32.06" width="9.23" height="3.08"/></svg>